<svg width="24" height="24" viewBox="0 0 24 24" fill="none" xmlns="http://www.w3.org/2000/svg">
<path d="M12.0006 0.240005C10.4247 0.240005 8.86432 0.551739 7.40841 1.15741C5.9525 1.76307 4.62963 2.65082 3.51533 3.76994C1.26489 6.03013 0.000610352 9.09559 0.000610352 12.292C0.000610352 17.6189 3.44461 22.1384 8.20861 23.7413C8.80861 23.8378 9.00061 23.4641 9.00061 23.1387V21.102C5.67661 21.8251 4.96861 19.487 4.96861 19.487C4.41661 18.089 3.63661 17.7154 3.63661 17.7154C2.54461 16.9681 3.72061 16.9922 3.72061 16.9922C4.92061 17.0766 5.55661 18.2336 5.55661 18.2336C6.60061 20.0655 8.36461 19.5231 9.04861 19.2339C9.15661 18.4505 9.46861 17.9202 9.80461 17.6189C7.14061 17.3176 4.34461 16.2812 4.34461 11.6894C4.34461 10.3516 4.80061 9.27898 5.58061 8.42329C5.46061 8.12199 5.04061 6.86859 5.70061 5.24157C5.70061 5.24157 6.70861 4.91617 9.00061 6.47087C9.94861 6.20573 10.9806 6.07316 12.0006 6.07316C13.0206 6.07316 14.0526 6.20573 15.0006 6.47087C17.2926 4.91617 18.3006 5.24157 18.3006 5.24157C18.9606 6.86859 18.5406 8.12199 18.4206 8.42329C19.2006 9.27898 19.6566 10.3516 19.6566 11.6894C19.6566 16.2932 16.8486 17.3056 14.1726 17.6069C14.6046 17.9805 15.0006 18.7157 15.0006 19.8365V23.1387C15.0006 23.4641 15.1926 23.8498 15.8046 23.7413C20.5686 22.1264 24.0006 17.6189 24.0006 12.292C24.0006 10.7093 23.6902 9.14209 23.0872 7.67988C22.4841 6.21767 21.6002 4.88907 20.4859 3.76994C19.3716 2.65082 18.0487 1.76307 16.5928 1.15741C15.1369 0.551739 13.5765 0.240005 12.0006 0.240005Z" fill="#5C23FF"/>
</svg>
