<svg width="24" height="24" viewBox="0 0 24 24" fill="none" xmlns="http://www.w3.org/2000/svg">
<path d="M6.96061 0H17.0406C20.8806 0 24.0006 3.12 24.0006 6.96V17.04C24.0006 18.8859 23.2673 20.6562 21.9621 21.9615C20.6568 23.2667 18.8865 24 17.0406 24H6.96061C3.12061 24 0.000610352 20.88 0.000610352 17.04V6.96C0.000610352 5.11409 0.733894 3.34379 2.03915 2.03854C3.3444 0.733284 5.1147 0 6.96061 0ZM6.72061 2.4C5.57488 2.4 4.47607 2.85514 3.66591 3.6653C2.85575 4.47546 2.40061 5.57427 2.40061 6.72V17.28C2.40061 19.668 4.33261 21.6 6.72061 21.6H17.2806C18.4263 21.6 19.5252 21.1449 20.3353 20.3347C21.1455 19.5245 21.6006 18.4257 21.6006 17.28V6.72C21.6006 4.332 19.6686 2.4 17.2806 2.4H6.72061ZM18.3006 4.2C18.6984 4.2 19.08 4.35804 19.3613 4.63934C19.6426 4.92064 19.8006 5.30218 19.8006 5.7C19.8006 6.09783 19.6426 6.47936 19.3613 6.76066C19.08 7.04197 18.6984 7.2 18.3006 7.2C17.9028 7.2 17.5213 7.04197 17.24 6.76066C16.9586 6.47936 16.8006 6.09783 16.8006 5.7C16.8006 5.30218 16.9586 4.92064 17.24 4.63934C17.5213 4.35804 17.9028 4.2 18.3006 4.2ZM12.0006 6C13.5919 6 15.118 6.63214 16.2433 7.75736C17.3685 8.88258 18.0006 10.4087 18.0006 12C18.0006 13.5913 17.3685 15.1174 16.2433 16.2426C15.118 17.3679 13.5919 18 12.0006 18C10.4093 18 8.88319 17.3679 7.75797 16.2426C6.63275 15.1174 6.00061 13.5913 6.00061 12C6.00061 10.4087 6.63275 8.88258 7.75797 7.75736C8.88319 6.63214 10.4093 6 12.0006 6ZM12.0006 8.4C11.0458 8.4 10.1302 8.77928 9.45503 9.45442C8.77989 10.1295 8.40061 11.0452 8.40061 12C8.40061 12.9548 8.77989 13.8705 9.45503 14.5456C10.1302 15.2207 11.0458 15.6 12.0006 15.6C12.9554 15.6 13.8711 15.2207 14.5462 14.5456C15.2213 13.8705 15.6006 12.9548 15.6006 12C15.6006 11.0452 15.2213 10.1295 14.5462 9.45442C13.8711 8.77928 12.9554 8.4 12.0006 8.4Z" fill="#FF4D00"/>
</svg>
