<svg width="25" height="24" viewBox="0 0 25 24" fill="none" xmlns="http://www.w3.org/2000/svg">
<path d="M22.2937 0C23.0009 0 23.6792 0.280951 24.1793 0.781048C24.6794 1.28115 24.9603 1.95942 24.9603 2.66667V21.3333C24.9603 22.0406 24.6794 22.7189 24.1793 23.219C23.6792 23.719 23.0009 24 22.2937 24H3.62699C2.91975 24 2.24147 23.719 1.74138 23.219C1.24128 22.7189 0.960327 22.0406 0.960327 21.3333V2.66667C0.960327 1.95942 1.24128 1.28115 1.74138 0.781048C2.24147 0.280951 2.91975 0 3.62699 0H22.2937ZM21.627 20.6667V13.6C21.627 12.4472 21.169 11.3416 20.3539 10.5264C19.5387 9.71128 18.4331 9.25333 17.2803 9.25333C16.147 9.25333 14.827 9.94667 14.187 10.9867V9.50667H10.467V20.6667H14.187V14.0933C14.187 13.0667 15.0137 12.2267 16.0403 12.2267C16.5354 12.2267 17.0102 12.4233 17.3603 12.7734C17.7103 13.1235 17.907 13.5983 17.907 14.0933V20.6667H21.627ZM6.13366 7.41333C6.72775 7.41333 7.2975 7.17733 7.71758 6.75725C8.13766 6.33717 8.37366 5.76742 8.37366 5.17333C8.37366 3.93333 7.37366 2.92 6.13366 2.92C5.53604 2.92 4.9629 3.1574 4.54031 3.57999C4.11773 4.00257 3.88033 4.57571 3.88033 5.17333C3.88033 6.41333 4.89366 7.41333 6.13366 7.41333ZM7.98699 20.6667V9.50667H4.29366V20.6667H7.98699Z" fill="#0085FF"/>
</svg>
