<svg width="25" height="24" viewBox="0 0 25 24" fill="none" xmlns="http://www.w3.org/2000/svg">
<path d="M9.40833 23.448C10.5603 23.796 11.7243 24 12.9603 24C16.1429 24 19.1952 22.7357 21.4456 20.4853C23.696 18.2348 24.9603 15.1826 24.9603 12C24.9603 10.4241 24.6499 8.86371 24.0469 7.4078C23.4438 5.95189 22.5599 4.62902 21.4456 3.51472C20.3313 2.40042 19.0084 1.5165 17.5525 0.913446C16.0966 0.310389 14.5362 0 12.9603 0C11.3845 0 9.82403 0.310389 8.36813 0.913446C6.91222 1.5165 5.58935 2.40042 4.47505 3.51472C2.22461 5.76516 0.960327 8.8174 0.960327 12C0.960327 17.1 4.16433 21.48 8.68833 23.208C8.58033 22.272 8.47233 20.724 8.68833 19.656L10.0683 13.728C10.0683 13.728 9.72033 13.032 9.72033 11.928C9.72033 10.272 10.7523 9.036 11.9283 9.036C12.9603 9.036 13.4403 9.792 13.4403 10.764C13.4403 11.796 12.7563 13.272 12.4083 14.688C12.2043 15.864 13.0323 16.896 14.2323 16.896C16.3683 16.896 18.0243 14.616 18.0243 11.4C18.0243 8.52 15.9603 6.552 12.9963 6.552C9.61233 6.552 7.62033 9.072 7.62033 11.724C7.62033 12.756 7.95633 13.8 8.50833 14.484C8.61633 14.556 8.61633 14.652 8.58033 14.832L8.23233 16.14C8.23233 16.344 8.10033 16.416 7.89633 16.272C6.36033 15.6 5.47233 13.416 5.47233 11.652C5.47233 7.86 8.16033 4.416 13.3443 4.416C17.4723 4.416 20.6883 7.38 20.6883 11.316C20.6883 15.444 18.1323 18.756 14.4723 18.756C13.3083 18.756 12.1683 18.132 11.7603 17.4L10.9563 20.244C10.6803 21.276 9.92433 22.656 9.40833 23.484V23.448Z" fill="#FF0000"/>
</svg>
