<svg width="25" height="21" viewBox="0 0 25 21" fill="none" xmlns="http://www.w3.org/2000/svg">
<path d="M24.9603 2.47059C24.0431 2.90294 23.0544 3.18706 22.0299 3.32294C23.0782 2.66824 23.8882 1.63059 24.2694 0.382941C23.2807 1.00059 22.1848 1.43294 21.0293 1.68C20.0883 0.617647 18.766 0 17.2651 0C14.4658 0 12.1787 2.37176 12.1787 5.29941C12.1787 5.71941 12.2263 6.12706 12.3097 6.51C8.069 6.28765 4.29288 4.17529 1.77944 0.975882C1.3387 1.75412 1.08854 2.66824 1.08854 3.63176C1.08854 5.47235 1.98195 7.10294 3.36374 8.02941C2.51799 8.02941 1.73179 7.78235 1.0409 7.41176V7.44882C1.0409 10.0182 2.80388 12.1676 5.13864 12.6494C4.38905 12.8621 3.6021 12.8917 2.83961 12.7359C3.16315 13.7889 3.79679 14.7104 4.65146 15.3707C5.50612 16.031 6.53884 16.3969 7.60443 16.4171C5.79813 17.9 3.5591 18.7015 1.25531 18.69C0.850302 18.69 0.445293 18.6653 0.0402832 18.6159C2.30357 20.1229 4.99569 21 7.87841 21C17.2651 21 22.423 12.9212 22.423 5.91706C22.423 5.68235 22.423 5.46 22.4111 5.22529C23.4117 4.48412 24.2694 3.54529 24.9603 2.47059Z" fill="#0085FF"/>
</svg>
