<svg width="25" height="24" viewBox="0 0 25 24" fill="none" xmlns="http://www.w3.org/2000/svg">
<path d="M11.4602 13.248C11.4602 12.564 10.8962 12 10.2122 12C9.52823 12 8.96423 12.564 8.96423 13.248C8.96423 13.579 9.09572 13.8964 9.32976 14.1305C9.56381 14.3645 9.88124 14.496 10.2122 14.496C10.5432 14.496 10.8607 14.3645 11.0947 14.1305C11.3287 13.8964 11.4602 13.579 11.4602 13.248ZM15.4682 16.092C14.9282 16.632 13.7762 16.824 12.9602 16.824C12.1442 16.824 10.9922 16.632 10.4522 16.092C10.423 16.0608 10.3877 16.0358 10.3485 16.0188C10.3093 16.0018 10.267 15.993 10.2242 15.993C10.1815 15.993 10.1392 16.0018 10.0999 16.0188C10.0607 16.0358 10.0254 16.0608 9.99623 16.092C9.96498 16.1212 9.94007 16.1565 9.92304 16.1957C9.906 16.2349 9.89721 16.2772 9.89721 16.32C9.89721 16.3628 9.906 16.4051 9.92304 16.4443C9.94007 16.4835 9.96498 16.5188 9.99623 16.548C10.8482 17.4 12.4802 17.472 12.9602 17.472C13.4402 17.472 15.0722 17.4 15.9242 16.548C15.9555 16.5188 15.9804 16.4835 15.9974 16.4443C16.0145 16.4051 16.0233 16.3628 16.0233 16.32C16.0233 16.2772 16.0145 16.2349 15.9974 16.1957C15.9804 16.1565 15.9555 16.1212 15.9242 16.092C15.8042 15.972 15.6002 15.972 15.4682 16.092ZM15.7082 12C15.0242 12 14.4602 12.564 14.4602 13.248C14.4602 13.932 15.0242 14.496 15.7082 14.496C16.3922 14.496 16.9562 13.932 16.9562 13.248C16.9562 12.564 16.4042 12 15.7082 12Z" fill="#FF0000"/>
<path d="M12.9603 0C6.33633 0 0.960327 5.376 0.960327 12C0.960327 18.624 6.33633 24 12.9603 24C19.5843 24 24.9603 18.624 24.9603 12C24.9603 5.376 19.5843 0 12.9603 0ZM19.9203 13.596C19.9443 13.764 19.9563 13.944 19.9563 14.124C19.9563 16.812 16.8243 18.996 12.9603 18.996C9.09633 18.996 5.96433 16.812 5.96433 14.124C5.96433 13.944 5.97633 13.764 6.00033 13.596C5.38833 13.32 4.96833 12.708 4.96833 12C4.96655 11.6559 5.06649 11.3189 5.2556 11.0314C5.44471 10.744 5.71455 10.5188 6.03123 10.3841C6.34792 10.2495 6.69732 10.2115 7.03556 10.2748C7.37379 10.3381 7.68578 10.4999 7.93233 10.74C9.14433 9.864 10.8243 9.312 12.6843 9.252L13.5723 5.064C13.5843 4.98 13.6323 4.908 13.7043 4.872C13.7763 4.824 13.8603 4.812 13.9443 4.824L16.8483 5.448C16.9468 5.2483 17.0969 5.07858 17.2831 4.95645C17.4693 4.83433 17.6848 4.76424 17.9072 4.75347C18.1296 4.74269 18.3509 4.79162 18.548 4.89517C18.7451 4.99873 18.911 5.15314 19.0283 5.34238C19.1456 5.53163 19.2102 5.74883 19.2153 5.97144C19.2204 6.19405 19.1658 6.41398 19.0573 6.6084C18.9487 6.80282 18.7901 6.96465 18.5979 7.07712C18.4058 7.18959 18.187 7.24859 17.9643 7.248C17.2923 7.248 16.7523 6.72 16.7163 6.06L14.1123 5.508L13.3203 9.252C15.1563 9.312 16.8003 9.876 18.0003 10.74C18.1843 10.5643 18.4044 10.431 18.6453 10.3493C18.8862 10.2676 19.142 10.2395 19.3949 10.267C19.6477 10.2945 19.8915 10.3769 20.1092 10.5084C20.3269 10.64 20.5132 10.8175 20.6551 11.0286C20.7971 11.2397 20.8911 11.4793 20.9308 11.7305C20.9704 11.9818 20.9547 12.2386 20.8847 12.4832C20.8147 12.7277 20.6922 12.954 20.5256 13.1462C20.359 13.3385 20.1524 13.492 19.9203 13.596Z" fill="#FF0000"/>
</svg>
