<svg width="24" height="24" viewBox="0 0 24 24" fill="none" xmlns="http://www.w3.org/2000/svg">
<path d="M23.977 5.61717C23.9758 5.18486 23.9363 4.75351 23.859 4.32817C23.7727 3.8082 23.6085 3.30421 23.372 2.83317C23.1126 2.3382 22.7749 1.8884 22.372 1.50117C21.764 0.906675 21.0133 0.478619 20.192 0.258168C19.4375 0.075306 18.6621 -0.00740522 17.886 0.0121675L17.882 0.000167847H6.114V0.0121675C5.67227 0.00858832 5.23066 0.0282823 4.791 0.0711675C4.31001 0.122602 3.83655 0.229307 3.38 0.389168C2.6273 0.672615 1.95205 1.12957 1.40908 1.72293C0.866107 2.31629 0.470713 3.02934 0.255 3.80417C0.0733798 4.55213 -0.00932624 5.32069 0.00899982 6.09017L0 17.8962C0.00765891 18.4307 0.0440449 18.9645 0.109 19.4952C0.189157 20.0551 0.35475 20.5994 0.6 21.1092C0.94627 21.79 1.43908 22.3856 2.043 22.8532C2.47452 23.1971 2.96335 23.4621 3.487 23.6362C4.25575 23.8734 5.05649 23.9908 5.861 23.9842C6.365 23.9872 6.868 24.0002 7.371 23.9982C11.031 23.9822 14.69 24.0242 18.349 23.9752C18.8324 23.9646 19.3141 23.9134 19.789 23.8222C20.6864 23.6644 21.5216 23.2584 22.2 22.6502C22.9988 21.9566 23.5566 21.0273 23.793 19.9962C23.9384 19.3058 24.0079 18.6016 24 17.8962V17.7552C24 17.7002 23.98 5.77517 23.977 5.61717ZM20.764 16.7222C20.61 17.0822 19.834 17.3792 18.52 17.5822C18.397 17.6022 18.345 17.8012 18.274 18.1272C18.244 18.2622 18.214 18.3942 18.174 18.5322C18.162 18.5908 18.1289 18.6431 18.081 18.679C18.0331 18.7149 17.9737 18.7321 17.914 18.7272H17.894C17.7682 18.7227 17.643 18.707 17.52 18.6802C17.1957 18.6121 16.8654 18.5769 16.534 18.5752C16.2961 18.5758 16.0586 18.5959 15.824 18.6352C15.3283 18.7606 14.8672 18.9961 14.475 19.3242C13.8123 19.89 12.9796 20.2184 12.109 20.2572C12.059 20.2572 12.011 20.2552 11.975 20.2532C11.9457 20.2557 11.9164 20.2571 11.887 20.2572C11.0168 20.2189 10.1844 19.8908 9.522 19.3252C9.12944 18.9968 8.66805 18.761 8.172 18.6352C7.93737 18.5958 7.69991 18.5758 7.462 18.5752C7.13074 18.5785 6.80069 18.6157 6.477 18.6862C6.35413 18.7149 6.22899 18.733 6.103 18.7402C6.03958 18.7473 5.97578 18.7305 5.92403 18.6932C5.87227 18.6558 5.83626 18.6006 5.823 18.5382C5.78412 18.4036 5.75075 18.2675 5.723 18.1302C5.651 17.8022 5.599 17.6022 5.476 17.5832C4.163 17.3802 3.386 17.0822 3.232 16.7202C3.21637 16.684 3.20723 16.6455 3.205 16.6062C3.20185 16.5542 3.21811 16.5029 3.25063 16.4623C3.28315 16.4216 3.32961 16.3945 3.381 16.3862C4.46735 16.1896 5.44629 15.6076 6.138 14.7472C6.51869 14.307 6.83516 13.8151 7.078 13.2862L7.082 13.2762C7.15362 13.159 7.19879 13.0276 7.21433 12.8911C7.22988 12.7547 7.21543 12.6165 7.172 12.4862C7.003 12.0862 6.442 11.9092 6.072 11.7912C5.98773 11.766 5.90435 11.738 5.822 11.7072C5.494 11.5772 4.954 11.3032 5.026 10.9242C5.08111 10.7817 5.17936 10.66 5.30702 10.5761C5.43467 10.4922 5.58535 10.4503 5.738 10.4562C5.81229 10.4544 5.88604 10.4691 5.954 10.4992C6.23091 10.6409 6.5352 10.7211 6.846 10.7342C7.03054 10.7472 7.21334 10.6912 7.359 10.5772C7.34967 10.4018 7.339 10.2268 7.327 10.0522C7.15808 8.86829 7.23019 7.66248 7.539 6.50717C7.90224 5.67801 8.50171 4.97423 9.26254 4.48373C10.0234 3.99323 10.9118 3.73774 11.817 3.74917L12.171 3.74617C13.0774 3.73457 13.9671 3.99013 14.7291 4.48096C15.4911 4.97179 16.0917 5.67616 16.456 6.50617C16.7649 7.66248 16.8371 8.86929 16.668 10.0542L16.665 10.1112L16.637 10.5782C16.7693 10.6831 16.9342 10.7383 17.103 10.7342C17.3957 10.7122 17.6811 10.6326 17.943 10.5002C18.0297 10.4624 18.1235 10.4437 18.218 10.4452C18.3252 10.4448 18.4315 10.4652 18.531 10.5052L18.536 10.5072C18.6485 10.5342 18.7504 10.5941 18.8288 10.6792C18.9071 10.7643 18.9584 10.8708 18.976 10.9852C18.98 11.1692 18.844 11.4432 18.173 11.7082C18.0909 11.7389 18.0079 11.7669 17.924 11.7922C17.553 11.9102 16.993 12.0882 16.824 12.4872C16.7807 12.6173 16.7663 12.7553 16.7818 12.8916C16.7973 13.0279 16.8425 13.1591 16.914 13.2762L16.918 13.2862C17.2537 14.0528 17.7621 14.7315 18.4034 15.2692C19.0447 15.807 19.8016 16.1892 20.615 16.3862C20.6663 16.3947 20.7126 16.4219 20.7451 16.4625C20.7776 16.5031 20.7939 16.5543 20.791 16.6062C20.7889 16.6461 20.7798 16.6854 20.764 16.7222Z" fill="black"/>
</svg>
