<svg width="24" height="18" viewBox="0 0 24 18" fill="none" xmlns="http://www.w3.org/2000/svg">
<path d="M9.60061 12.8571L15.8286 9L9.60061 5.14286V12.8571ZM23.4726 2.79C23.6286 3.39429 23.7366 4.20429 23.8086 5.23286C23.8926 6.26143 23.9286 7.14857 23.9286 7.92L24.0006 9C24.0006 11.8157 23.8086 13.8857 23.4726 15.21C23.1726 16.3671 22.4766 17.1129 21.3966 17.4343C20.8326 17.6014 19.8006 17.7171 18.2166 17.7943C16.6566 17.8843 15.2286 17.9229 13.9086 17.9229L12.0006 18C6.97261 18 3.84061 17.7943 2.60461 17.4343C1.52461 17.1129 0.82861 16.3671 0.52861 15.21C0.37261 14.6057 0.26461 13.7957 0.19261 12.7671C0.10861 11.7386 0.0726103 10.8514 0.0726103 10.08L0.000610352 9C0.000610352 6.18429 0.19261 4.11429 0.52861 2.79C0.82861 1.63286 1.52461 0.887143 2.60461 0.565714C3.16861 0.398571 4.20061 0.282857 5.78461 0.205714C7.34461 0.115714 8.77261 0.0771428 10.0926 0.0771428L12.0006 0C17.0286 0 20.1606 0.205714 21.3966 0.565714C22.4766 0.887143 23.1726 1.63286 23.4726 2.79Z" fill="#FF0000"/>
</svg>
