<svg width="229" height="97" viewBox="0 0 229 97" fill="none" xmlns="http://www.w3.org/2000/svg">
<g filter="url(#filter0_d_1_29)">
<rect x="3.8205" y="3" width="212" height="78" rx="5" transform="rotate(0.602734 3.8205 3)" fill="#5C23FF" shape-rendering="crispEdges"/>
<path d="M46.3692 51.4503C46.1992 50.8725 46.0055 50.2784 45.7879 49.6681C45.5863 49.0579 45.3847 48.4477 45.1831 47.8376L38.7035 47.7694C38.4891 48.3752 38.2667 48.9809 38.0363 49.5865C37.8219 50.1923 37.6237 50.7822 37.4417 51.3564L33.5539 51.3155C34.1967 49.5301 34.8061 47.8804 35.382 46.3664C35.958 44.8524 36.517 43.4262 37.0591 42.0878C37.6173 40.7496 38.1586 39.4832 38.6832 38.2887C39.224 37.0783 39.7804 35.9001 40.3525 34.7541L43.9283 34.7917C44.4601 35.9493 44.9836 37.1389 45.4988 38.3604C46.0142 39.5659 46.5288 40.8434 47.0426 42.1928C47.5724 43.5425 48.1093 44.9802 48.6533 46.506C49.1973 48.0318 49.7718 49.694 50.377 51.4924L46.3692 51.4503ZM42.0167 38.5398C41.9342 38.7789 41.8108 39.1056 41.6464 39.5199C41.482 39.9342 41.293 40.4123 41.0793 40.954C40.8656 41.4958 40.6273 42.0934 40.3644 42.7466C40.1175 43.4001 39.8623 44.0854 39.5987 44.8027L44.3265 44.8524C44.0781 44.1298 43.8373 43.4392 43.6042 42.7807C43.3711 42.1222 43.1455 41.5198 42.9272 40.9735C42.7249 40.4273 42.546 39.9454 42.3904 39.5278C42.2348 39.1101 42.1102 38.7808 42.0167 38.5398ZM63.6749 48.4162L63.6411 51.632L52.5297 51.5151L52.7047 34.884L56.4485 34.9234L56.3073 48.3386L63.6749 48.4162ZM77.1976 48.5584L77.1638 51.7742L66.0524 51.6573L66.2274 35.0263L69.9712 35.0656L69.83 48.4809L77.1976 48.5584ZM89.9062 49.0521C90.4342 49.0577 90.8666 49.0222 91.2034 48.9458C91.5564 48.8535 91.8376 48.7364 92.0471 48.5946C92.2568 48.4368 92.4027 48.2543 92.4849 48.0472C92.5671 47.8401 92.6095 47.6085 92.6122 47.3525C92.6179 46.8085 92.3667 46.3579 91.8584 46.0005C91.3503 45.6271 90.4745 45.2259 89.2309 44.7968C88.689 44.5991 88.1473 44.3774 87.6058 44.1317C87.0645 43.8699 86.5799 43.5528 86.1517 43.1803C85.7238 42.7918 85.3766 42.3321 85.1102 41.8013C84.8439 41.2544 84.7148 40.597 84.7229 39.8291C84.731 39.0611 84.8822 38.3747 85.1766 37.7697C85.4712 37.1488 85.8847 36.6251 86.4172 36.1987C86.9497 35.7723 87.5931 35.451 88.3475 35.235C89.1019 35.0029 89.9512 34.8918 90.8951 34.9017C92.015 34.9135 92.9817 35.0437 93.7952 35.2923C94.6086 35.5408 95.2778 35.8119 95.8027 36.1054L94.6917 39.0459C94.2303 38.801 93.7125 38.5876 93.1384 38.4055C92.5804 38.2077 91.9015 38.1045 91.1015 38.0961C90.2056 38.0867 89.5562 38.2078 89.1536 38.4596C88.7671 38.6956 88.5711 39.0695 88.5657 39.5815C88.5625 39.8855 88.6318 40.1422 88.7737 40.3517C88.9155 40.5612 89.1134 40.7553 89.3676 40.934C89.6379 41.0969 89.9402 41.2521 90.2747 41.3996C90.6253 41.5313 91.0079 41.6713 91.4224 41.8197C92.2829 42.1487 93.0315 42.4766 93.6681 42.8034C94.3049 43.1141 94.8291 43.4796 95.2407 43.9C95.6683 44.3205 95.9831 44.8118 96.1852 45.374C96.3873 45.9361 96.4842 46.6172 96.4758 47.4171C96.4594 48.9691 95.9027 50.1713 94.8057 51.0238C93.7089 51.8603 92.0645 52.267 89.8726 52.2439C89.1367 52.2362 88.4732 52.1812 87.8822 52.079C87.2911 51.9928 86.7642 51.8832 86.3016 51.7504C85.855 51.6177 85.4644 51.4775 85.13 51.33C84.8115 51.1827 84.5409 51.0438 84.3183 50.9134L85.4055 47.9487C85.8987 48.2259 86.504 48.4803 87.2216 48.7119C87.9554 48.9276 88.8502 49.041 89.9062 49.0521ZM102.54 43.7127C102.531 44.5287 102.619 45.2657 102.805 45.9236C103.006 46.5818 103.288 47.1528 103.651 47.6366C104.03 48.1046 104.49 48.4695 105.031 48.7312C105.572 48.9929 106.195 49.1275 106.899 49.1349C107.587 49.1421 108.204 49.0206 108.751 48.7703C109.314 48.5203 109.781 48.1652 110.154 47.7051C110.543 47.2291 110.837 46.6642 111.036 46.0102C111.251 45.3565 111.363 44.6216 111.371 43.8056C111.38 42.9897 111.284 42.2526 111.083 41.5945C110.898 40.9205 110.616 40.3495 110.237 39.8815C109.874 39.3976 109.414 39.0248 108.856 38.7629C108.315 38.5012 107.7 38.3667 107.012 38.3595C106.308 38.3521 105.683 38.4815 105.136 38.7478C104.59 38.998 104.122 39.3611 103.733 39.8371C103.36 40.2972 103.066 40.8621 102.851 41.5319C102.652 42.1858 102.548 42.9128 102.54 43.7127ZM115.235 43.8463C115.22 45.2702 114.991 46.5239 114.548 47.6073C114.12 48.6748 113.535 49.5727 112.791 50.3009C112.048 51.0132 111.162 51.5479 110.134 51.9051C109.122 52.2624 108.032 52.435 106.864 52.4227C105.728 52.4108 104.658 52.2155 103.654 51.8369C102.65 51.4583 101.776 50.9051 101.032 50.1772C100.288 49.4334 99.705 48.5232 99.2843 47.4467C98.8638 46.3542 98.661 45.096 98.676 43.6721C98.691 42.2482 98.9281 41.0026 99.3874 39.9354C99.8468 38.8521 100.456 37.9465 101.216 37.2184C101.992 36.4906 102.878 35.9479 103.873 35.5903C104.885 35.2329 105.943 35.06 107.047 35.0717C108.183 35.0836 109.253 35.2789 110.257 35.6575C111.261 36.036 112.135 36.5973 112.879 37.3411C113.624 38.085 114.206 39.0032 114.627 40.0957C115.047 41.1722 115.25 42.4224 115.235 43.8463ZM125.848 52.6224C123.144 52.594 121.088 51.8203 119.68 50.3014C118.288 48.7827 117.607 46.6394 117.636 43.8715C117.65 42.4956 117.879 41.274 118.323 40.2066C118.766 39.1232 119.367 38.2174 120.127 37.4894C120.887 36.7453 121.789 36.1868 122.833 35.8138C123.877 35.4407 125.007 35.2606 126.223 35.2734C126.927 35.2808 127.566 35.3435 128.141 35.4616C128.716 35.5636 129.219 35.6889 129.649 35.8375C130.08 35.97 130.438 36.1098 130.725 36.2568C131.011 36.4038 131.218 36.518 131.345 36.5994L130.233 39.6118C129.724 39.3345 129.127 39.0962 128.441 38.8969C127.771 38.6979 127.004 38.5938 126.14 38.5847C125.564 38.5786 124.995 38.6687 124.433 38.8548C123.887 39.041 123.396 39.3479 122.959 39.7753C122.539 40.1869 122.197 40.7274 121.934 41.3966C121.671 42.0659 121.535 42.8805 121.524 43.8404C121.516 44.6084 121.589 45.3292 121.742 46.0029C121.911 46.6607 122.177 47.2315 122.54 47.7153C122.919 48.1994 123.411 48.5885 124.016 48.8829C124.621 49.1613 125.355 49.305 126.219 49.3141C126.763 49.3199 127.251 49.293 127.684 49.2335C128.117 49.1741 128.501 49.1061 128.838 49.0297C129.175 48.9372 129.472 48.8363 129.73 48.727C129.987 48.6177 130.22 48.5162 130.429 48.4224L131.429 51.4331C130.898 51.7475 130.151 52.0276 129.188 52.2735C128.226 52.5194 127.112 52.6357 125.848 52.6224ZM134.005 35.7393L137.749 35.7787L137.574 52.4097L133.83 52.3704L134.005 35.7393ZM152.559 52.5674C152.389 51.9896 152.195 51.3955 151.977 50.7852C151.776 50.175 151.574 49.5649 151.373 48.9547L144.893 48.8865C144.679 49.4923 144.456 50.098 144.226 50.7036C144.011 51.3094 143.813 51.8994 143.631 52.4735L139.743 52.4326C140.386 50.6472 140.996 48.9976 141.571 47.4835C142.147 45.9695 142.706 44.5433 143.249 43.2049C143.807 41.8667 144.348 40.6004 144.873 39.4058C145.413 38.1954 145.97 37.0172 146.542 35.8712L150.118 35.9088C150.65 37.0665 151.173 38.256 151.688 39.4775C152.204 40.683 152.718 41.9605 153.232 43.31C153.762 44.6596 154.299 46.0973 154.843 47.6231C155.387 49.149 155.961 50.8111 156.566 52.6096L152.559 52.5674ZM148.206 39.6569C148.124 39.896 148 40.2228 147.836 40.6371C147.671 41.0513 147.482 41.5294 147.269 42.0712C147.055 42.6129 146.817 43.2105 146.554 43.8637C146.307 44.5172 146.052 45.2025 145.788 45.9198L150.516 45.9695C150.267 45.2469 150.027 44.5563 149.794 43.8978C149.561 43.2393 149.335 42.6369 149.117 42.0906C148.914 41.5444 148.735 41.0625 148.58 40.6449C148.424 40.2272 148.3 39.8979 148.206 39.6569ZM169.864 49.5333L169.831 52.7491L158.719 52.6322L158.894 36.0011L162.638 36.0405L162.497 49.4558L169.864 49.5333ZM177.206 49.9705C177.734 49.9761 178.166 49.9406 178.503 49.8642C178.856 49.7719 179.137 49.6548 179.347 49.513C179.557 49.3552 179.703 49.1727 179.785 48.9656C179.867 48.7585 179.909 48.5269 179.912 48.2709C179.918 47.7269 179.667 47.2763 179.158 46.9189C178.65 46.5455 177.774 46.1443 176.531 45.7152C175.989 45.5175 175.447 45.2958 174.906 45.0501C174.364 44.7883 173.88 44.4712 173.452 44.0987C173.024 43.7102 172.676 43.2505 172.41 42.7197C172.144 42.1728 172.015 41.5154 172.023 40.7475C172.031 39.9795 172.182 39.2931 172.476 38.6881C172.771 38.0672 173.185 37.5435 173.717 37.1171C174.25 36.6907 174.893 36.3694 175.647 36.1534C176.402 35.9213 177.251 35.8102 178.195 35.8201C179.315 35.8319 180.282 35.9621 181.095 36.2107C181.908 36.4592 182.578 36.7303 183.103 37.0238L181.992 39.9643C181.53 39.7194 181.012 39.506 180.438 39.3239C179.88 39.1261 179.201 39.0229 178.401 39.0145C177.505 39.0051 176.856 39.1262 176.453 39.378C176.067 39.614 175.871 39.9879 175.866 40.4999C175.862 40.8039 175.932 41.0606 176.074 41.2701C176.215 41.4796 176.413 41.6737 176.667 41.8524C176.938 42.0153 177.24 42.1705 177.575 42.318C177.925 42.4497 178.308 42.5897 178.722 42.7381C179.583 43.0671 180.331 43.395 180.968 43.7218C181.605 44.0325 182.129 44.398 182.541 44.8184C182.968 45.2389 183.283 45.7302 183.485 46.2924C183.687 46.8545 183.784 47.5356 183.776 48.3355C183.759 49.8875 183.203 51.0897 182.106 51.9422C181.009 52.7787 179.364 53.1854 177.172 53.1624C176.437 53.1546 175.773 53.0996 175.182 52.9974C174.591 52.9112 174.064 52.8016 173.601 52.6688C173.155 52.5361 172.764 52.3959 172.43 52.2484C172.111 52.1011 171.841 51.9622 171.618 51.8318L172.705 48.8671C173.199 49.1443 173.804 49.3987 174.521 49.6303C175.255 49.846 176.15 49.9594 177.206 49.9705Z" fill="white"/>
</g>
<defs>
<filter id="filter0_d_1_29" x="-2.28882e-05" y="0" width="228.809" height="96.2258" filterUnits="userSpaceOnUse" color-interpolation-filters="sRGB">
<feFlood flood-opacity="0" result="BackgroundImageFix"/>
<feColorMatrix in="SourceAlpha" type="matrix" values="0 0 0 0 0 0 0 0 0 0 0 0 0 0 0 0 0 0 127 0" result="hardAlpha"/>
<feOffset dx="5" dy="5"/>
<feGaussianBlur stdDeviation="4"/>
<feComposite in2="hardAlpha" operator="out"/>
<feColorMatrix type="matrix" values="0 0 0 0 0 0 0 0 0 0.52 0 0 0 0 1 0 0 0 1 0"/>
<feBlend mode="normal" in2="BackgroundImageFix" result="effect1_dropShadow_1_29"/>
<feBlend mode="normal" in="SourceGraphic" in2="effect1_dropShadow_1_29" result="shape"/>
</filter>
</defs>
</svg>
