<svg width="142" height="94" viewBox="0 0 142 94" fill="none" xmlns="http://www.w3.org/2000/svg">
<g filter="url(#filter0_d_1_28)">
<rect x="3" y="3" width="126" height="78" rx="5" fill="#FF5C00" shape-rendering="crispEdges"/>
<path d="M34.92 51V34.368H46.056V37.512H38.664V40.992H45.24V44.136H38.664V51H34.92ZM53.5733 34.176C56.0693 34.176 57.9813 34.624 59.3093 35.52C60.6373 36.4 61.3013 37.776 61.3013 39.648C61.3013 40.816 61.0293 41.768 60.4853 42.504C59.9573 43.224 59.1893 43.792 58.1813 44.208C58.5173 44.624 58.8693 45.104 59.2373 45.648C59.6053 46.176 59.9653 46.736 60.3173 47.328C60.6853 47.904 61.0373 48.512 61.3733 49.152C61.7093 49.776 62.0213 50.392 62.3093 51H58.1093C57.8053 50.456 57.4933 49.904 57.1733 49.344C56.8693 48.784 56.5493 48.24 56.2133 47.712C55.8933 47.184 55.5733 46.688 55.2533 46.224C54.9333 45.744 54.6133 45.312 54.2933 44.928H52.4453V51H48.7013V34.608C49.5173 34.448 50.3573 34.336 51.2213 34.272C52.1013 34.208 52.8853 34.176 53.5733 34.176ZM53.7893 37.368C53.5173 37.368 53.2693 37.376 53.0453 37.392C52.8373 37.408 52.6373 37.424 52.4453 37.44V41.952H53.5013C54.9093 41.952 55.9173 41.776 56.5253 41.424C57.1333 41.072 57.4373 40.472 57.4373 39.624C57.4373 38.808 57.1253 38.232 56.5013 37.896C55.8933 37.544 54.9893 37.368 53.7893 37.368ZM64.7091 51V34.368H75.9411V37.512H68.4531V40.776H75.1011V43.848H68.4531V47.856H76.4931V51H64.7091ZM79.2638 51V34.368H90.4958V37.512H83.0078V40.776H89.6558V43.848H83.0078V47.856H91.0478V51H79.2638ZM97.2504 38.664C97.2504 39.96 97.2024 41.168 97.1064 42.288C97.0104 43.408 96.8824 44.544 96.7224 45.696H93.9864C93.8264 44.544 93.6904 43.408 93.5784 42.288C93.4824 41.168 93.4344 39.96 93.4344 38.664V34.368H97.2504V38.664ZM97.5624 49.104C97.5624 49.808 97.3304 50.352 96.8664 50.736C96.4184 51.12 95.9064 51.312 95.3304 51.312C94.7544 51.312 94.2344 51.12 93.7704 50.736C93.3224 50.352 93.0984 49.808 93.0984 49.104C93.0984 48.4 93.3224 47.856 93.7704 47.472C94.2344 47.088 94.7544 46.896 95.3304 46.896C95.9064 46.896 96.4184 47.088 96.8664 47.472C97.3304 47.856 97.5624 48.4 97.5624 49.104Z" fill="white"/>
</g>
<defs>
<filter id="filter0_d_1_28" x="0" y="0" width="142" height="94" filterUnits="userSpaceOnUse" color-interpolation-filters="sRGB">
<feFlood flood-opacity="0" result="BackgroundImageFix"/>
<feColorMatrix in="SourceAlpha" type="matrix" values="0 0 0 0 0 0 0 0 0 0 0 0 0 0 0 0 0 0 127 0" result="hardAlpha"/>
<feOffset dx="5" dy="5"/>
<feGaussianBlur stdDeviation="4"/>
<feComposite in2="hardAlpha" operator="out"/>
<feColorMatrix type="matrix" values="0 0 0 0 0.36175 0 0 0 0 0.1375 0 0 0 0 1 0 0 0 1 0"/>
<feBlend mode="normal" in2="BackgroundImageFix" result="effect1_dropShadow_1_28"/>
<feBlend mode="normal" in="SourceGraphic" in2="effect1_dropShadow_1_28" result="shape"/>
</filter>
</defs>
</svg>
