<svg width="401" height="97" viewBox="0 0 401 97" fill="none" xmlns="http://www.w3.org/2000/svg">
<g filter="url(#filter0_d_1_31)">
<rect x="3.64014" y="5.67926" width="383" height="78" rx="5" transform="rotate(-0.287675 3.64014 5.67926)" fill="#FF0000" shape-rendering="crispEdges"/>
<path d="M40.3223 50.6397C40.8503 50.637 41.2821 50.5948 41.6177 50.5131C41.9692 50.4154 42.2486 50.294 42.4559 50.1489C42.6631 49.9879 42.8062 49.8032 42.8851 49.5948C42.9641 49.3864 43.0029 49.1542 43.0016 48.8982C42.9989 48.3542 42.7407 47.9075 42.2269 47.558C41.7131 47.1926 40.8311 46.805 39.581 46.3953C39.0361 46.2061 38.491 45.9928 37.9458 45.7555C37.4005 45.5023 36.911 45.1927 36.4771 44.8269C36.0432 44.4451 35.6889 43.9908 35.4143 43.4642C35.1395 42.9216 35.0002 42.2663 34.9964 41.4983C34.9925 40.7303 35.1331 40.0416 35.418 39.4321C35.7029 38.8067 36.1082 38.2767 36.634 37.842C37.1599 37.4074 37.7982 37.0762 38.5491 36.8484C39.2999 36.6046 40.1473 36.4804 41.0912 36.4756C42.2112 36.47 43.1798 36.5851 43.997 36.821C44.8142 37.0569 45.4875 37.3175 46.017 37.6029L44.9518 40.5603C44.4866 40.3226 43.9656 40.1172 43.3887 39.9441C42.8277 39.7549 42.1473 39.6623 41.3473 39.6664C40.4513 39.6709 39.8039 39.8021 39.4052 40.0601C39.0224 40.302 38.8323 40.679 38.8349 41.191C38.8364 41.495 38.9097 41.7506 39.0547 41.9579C39.1998 42.1652 39.4007 42.3562 39.6576 42.5309C39.9304 42.6895 40.2352 42.84 40.5719 42.9823C40.9245 43.1085 41.3092 43.2426 41.7259 43.3845C42.5915 43.7002 43.3451 44.0164 43.9867 44.3332C44.6282 44.634 45.158 44.9913 45.5761 45.4052C46.0102 45.819 46.3327 46.3054 46.5435 46.8644C46.7543 47.4233 46.8617 48.1028 46.8657 48.9028C46.8735 50.4548 46.3356 51.6655 45.2519 52.5349C44.1682 53.3884 42.5303 53.8206 40.3384 53.8316C39.6024 53.8353 38.9382 53.7906 38.3457 53.6976C37.7533 53.6206 37.2248 53.5192 36.7601 53.3936C36.3115 53.2678 35.9188 53.1338 35.5821 52.9915C35.2614 52.8491 34.9887 52.7145 34.7641 52.5876L35.8051 49.6063C36.3025 49.8758 36.9117 50.1208 37.6328 50.3412C38.3699 50.5455 39.2664 50.645 40.3223 50.6397ZM59.7177 36.7661L63.4616 36.7473L63.5451 53.3791L59.8012 53.3979L59.7658 46.342L53.4778 46.3735L53.5133 53.4295L49.7693 53.4483L49.6858 36.8165L53.4298 36.7977L53.4617 43.1576L59.7496 43.126L59.7177 36.7661ZM78.53 53.3038C78.3511 52.7287 78.1481 52.1378 77.921 51.5309C77.71 50.9239 77.4989 50.317 77.2879 49.71L70.808 49.7426C70.603 50.3516 70.3901 50.9607 70.1691 51.5698C69.9642 52.1788 69.7752 52.7718 69.6021 53.3487L65.7141 53.3682C66.3291 51.5731 66.9128 49.9141 67.4652 48.3913C68.0175 46.8685 68.5543 45.4338 69.0756 44.0872C69.6128 42.7405 70.1344 41.4659 70.6404 40.2633C71.1623 39.0447 71.7003 37.8579 72.2545 36.7031L75.8305 36.6852C76.3803 37.8344 76.9222 39.0157 77.4563 40.2291C77.9903 41.4264 78.5247 42.6957 79.0594 44.0371C79.6102 45.3783 80.1694 46.8075 80.737 48.3247C81.3046 49.8419 81.9049 51.4949 82.5379 53.2837L78.53 53.3038ZM73.9774 40.4625C73.8986 40.7029 73.7803 41.0315 73.6224 41.4483C73.4645 41.8651 73.2829 42.3461 73.0776 42.8911C72.8723 43.4361 72.6434 44.0373 72.3907 44.6946C72.1539 45.3518 71.9094 46.041 71.657 46.7623L76.385 46.7385C76.1254 46.0198 75.8739 45.3331 75.6306 44.6783C75.3873 44.0235 75.1523 43.4247 74.9256 42.8818C74.7149 42.3389 74.5284 41.8598 74.3664 41.4446C74.2043 41.0294 74.0746 40.7021 73.9774 40.4625ZM89.4782 36.4247C91.9742 36.4121 93.8884 36.8505 95.2209 37.7398C96.5533 38.6132 97.2242 39.9858 97.2336 41.8578C97.2395 43.0258 96.9722 43.9791 96.4319 44.7179C95.9076 45.4405 95.1424 46.0123 94.1365 46.4334C94.4746 46.8477 94.829 47.3259 95.1997 47.8681C95.5704 48.3942 95.9332 48.9524 96.2882 49.5426C96.6591 50.1168 97.0141 50.723 97.3533 51.3613C97.6924 51.9836 98.0075 52.598 98.2986 53.2046L94.0986 53.2257C93.7919 52.6832 93.4771 52.1328 93.1543 51.5744C92.8475 51.0159 92.5248 50.4735 92.1861 49.9472C91.8635 49.4209 91.541 48.9265 91.2187 48.4641C90.8963 47.9857 90.5741 47.5553 90.2522 47.1729L88.4042 47.1822L88.4347 53.2541L84.6908 53.2729L84.6085 36.8811C85.4236 36.717 86.2631 36.6008 87.1267 36.5325C88.0064 36.4641 88.7902 36.4281 89.4782 36.4247ZM89.7102 39.6155C89.4382 39.6169 89.1903 39.6262 88.9664 39.6433C88.7585 39.6603 88.5585 39.6773 88.3666 39.6943L88.3893 44.2062L89.4453 44.2009C90.8532 44.1939 91.8603 44.0128 92.4666 43.6578C93.0728 43.3027 93.3738 42.7012 93.3695 41.8532C93.3654 41.0372 93.0505 40.4628 92.4249 40.1299C91.8151 39.781 90.9102 39.6095 89.7102 39.6155ZM100.698 53.1925L100.615 36.5608L111.847 36.5044L111.862 39.6483L104.375 39.6859L104.391 42.9499L111.039 42.9165L111.054 45.9885L104.406 46.0218L104.427 50.0298L112.466 49.9894L112.482 53.1334L100.698 53.1925ZM124.121 44.7468C124.125 45.5628 124.224 46.2983 124.42 46.9534C124.631 47.6083 124.922 48.1749 125.292 48.653C125.679 49.1151 126.144 49.4727 126.69 49.726C127.235 49.9793 127.86 50.1041 128.564 50.1006C129.251 50.0971 129.867 49.9661 130.41 49.7073C130.968 49.4485 131.43 49.0862 131.796 48.6203C132.178 48.1384 132.463 47.569 132.652 46.912C132.856 46.255 132.957 45.5185 132.952 44.7025C132.948 43.8865 132.841 43.151 132.629 42.4961C132.434 41.8251 132.143 41.2585 131.757 40.7964C131.386 40.3183 130.921 39.9526 130.359 39.6994C129.814 39.4462 129.197 39.3213 128.509 39.3247C127.805 39.3283 127.182 39.4674 126.639 39.7421C126.097 40.0009 125.635 40.3712 125.253 40.8531C124.887 41.3189 124.602 41.8884 124.398 42.5614C124.209 43.2184 124.117 43.9468 124.121 44.7468ZM136.816 44.6831C136.824 46.1071 136.614 47.3641 136.187 48.4543C135.777 49.5284 135.205 50.4353 134.473 51.1749C133.741 51.8986 132.863 52.447 131.841 52.8202C130.835 53.1932 129.748 53.3827 128.58 53.3886C127.444 53.3943 126.371 53.2156 125.361 52.8527C124.351 52.4898 123.469 51.9502 122.713 51.234C121.957 50.5018 121.361 49.6008 120.924 48.5309C120.486 47.4451 120.264 46.1902 120.257 44.7662C120.249 43.3423 120.467 42.0931 120.91 41.0189C121.352 39.9287 121.948 39.0137 122.696 38.2739C123.46 37.5341 124.338 36.9776 125.328 36.6047C126.334 36.2316 127.389 36.0423 128.493 36.0368C129.629 36.0311 130.702 36.2097 131.712 36.5726C132.721 36.9356 133.604 37.4831 134.36 38.2153C135.116 38.9476 135.712 39.8566 136.15 40.9424C136.587 42.0122 136.809 43.2591 136.816 44.6831ZM151.139 52.9393C150.057 51.0407 148.888 49.1665 147.631 47.3168C146.373 45.4671 145.037 43.7218 143.62 42.0809L143.675 52.9768L139.979 52.9953L139.896 36.3635L142.944 36.3482C143.474 36.8736 144.061 37.5186 144.705 38.2834C145.349 39.0482 146.001 39.8689 146.662 40.7456C147.338 41.6062 148.007 42.5069 148.667 43.4476C149.328 44.3723 149.948 45.2652 150.529 46.1263L150.479 36.3104L154.199 36.2917L154.283 52.9235L151.139 52.9393ZM175.021 52.8194C174.842 52.2443 174.639 51.6533 174.412 51.0464C174.201 50.4395 173.99 49.8325 173.779 49.2256L167.299 49.2581C167.094 49.8671 166.881 50.4762 166.66 51.0853C166.455 51.6944 166.266 52.2873 166.093 52.8642L162.205 52.8837C162.82 51.0886 163.404 49.4297 163.956 47.9069C164.508 46.3841 165.045 44.9494 165.567 43.6027C166.104 42.256 166.625 40.9814 167.131 39.7788C167.653 38.5602 168.191 37.3735 168.745 36.2187L172.321 36.2007C172.871 37.35 173.413 38.5313 173.947 39.7446C174.481 40.9419 175.016 42.2113 175.55 43.5526C176.101 44.8939 176.66 46.3231 177.228 47.8402C177.796 49.3574 178.396 51.0104 179.029 52.7993L175.021 52.8194ZM170.468 39.9781C170.39 40.2185 170.271 40.5471 170.113 40.9639C169.955 41.3807 169.774 41.8616 169.569 42.4066C169.363 42.9517 169.134 43.5528 168.882 44.2101C168.645 44.8673 168.4 45.5565 168.148 46.2778L172.876 46.2541C172.616 45.5354 172.365 44.8486 172.122 44.1938C171.878 43.539 171.643 42.9402 171.417 42.3973C171.206 41.8544 171.019 41.3753 170.857 40.9601C170.695 40.5449 170.566 40.2176 170.468 39.9781ZM192.277 49.5167L192.294 52.7327L181.182 52.7884L181.098 36.1567L184.842 36.1379L184.91 49.5537L192.277 49.5167ZM205.801 49.4488L205.817 52.6648L194.705 52.7205L194.621 36.0888L198.365 36.07L198.433 49.4858L205.801 49.4488ZM218.901 35.7748C221.381 35.7624 223.287 36.1928 224.62 37.0661C225.952 37.9235 226.623 39.3441 226.633 41.3281C226.643 43.3281 225.979 44.7794 224.639 45.6822C223.3 46.5689 221.382 47.0185 218.886 47.0311L217.71 47.037L217.738 52.6049L213.994 52.6237L213.912 36.2319C214.727 36.0678 215.59 35.9515 216.502 35.8829C217.413 35.8143 218.213 35.7783 218.901 35.7748ZM219.157 38.9656C218.885 38.967 218.613 38.9763 218.341 38.9937C218.086 39.011 217.862 39.0281 217.67 39.0451L217.694 43.845L218.87 43.8391C220.166 43.8326 221.141 43.6517 221.795 43.2964C222.449 42.9411 222.774 42.2835 222.769 41.3235C222.767 40.8595 222.677 40.4759 222.499 40.1728C222.338 39.8696 222.097 39.6308 221.776 39.4565C221.471 39.266 221.094 39.1399 220.646 39.0781C220.197 39.0004 219.701 38.9629 219.157 38.9656ZM240.535 49.2744L240.551 52.4904L229.439 52.5461L229.355 35.9144L233.099 35.8956L233.167 49.3114L240.535 49.2744ZM254.848 52.4186C254.669 51.8435 254.466 51.2525 254.239 50.6456C254.028 50.0387 253.817 49.4317 253.606 48.8248L247.126 48.8573C246.921 49.4663 246.708 50.0754 246.487 50.6845C246.282 51.2936 246.093 51.8865 245.92 52.4634L242.032 52.4829C242.647 50.6878 243.231 49.0289 243.783 47.5061C244.336 45.9833 244.872 44.5486 245.394 43.2019C245.931 41.8552 246.452 40.5806 246.958 39.378C247.48 38.1594 248.018 36.9727 248.573 35.8179L252.149 35.7999C252.698 36.9492 253.24 38.1305 253.774 39.3438C254.308 40.5411 254.843 41.8105 255.378 43.1518C255.928 44.493 256.487 45.9223 257.055 47.4394C257.623 48.9566 258.223 50.6096 258.856 52.3984L254.848 52.4186ZM250.296 39.5773C250.217 39.8177 250.098 40.1463 249.94 40.5631C249.783 40.9799 249.601 41.4608 249.396 42.0058C249.19 42.5509 248.961 43.152 248.709 43.8093C248.472 44.4665 248.227 45.1557 247.975 45.877L252.703 45.8533C252.443 45.1346 252.192 44.4478 251.949 43.793C251.705 43.1382 251.47 42.5394 251.244 41.9965C251.033 41.4536 250.847 40.9745 250.684 40.5593C250.522 40.1441 250.393 39.8168 250.296 39.5773ZM271.292 35.7038L271.308 38.8958L266.293 38.9209L266.36 52.3608L262.616 52.3796L262.549 38.9397L257.533 38.9649L257.517 35.773L271.292 35.7038ZM273.782 52.3235L273.699 35.6917L284.834 35.6358L284.85 38.7798L277.458 38.8169L277.476 42.2968L284.052 42.2638L284.068 45.4078L277.492 45.4408L277.526 52.3047L273.782 52.3235ZM290.478 43.9116C290.482 44.7276 290.582 45.4631 290.777 46.1181C290.988 46.773 291.279 47.3396 291.649 47.8177C292.036 48.2798 292.502 48.6375 293.047 48.8907C293.592 49.144 294.217 49.2689 294.921 49.2653C295.609 49.2619 296.224 49.1308 296.767 48.8721C297.326 48.6132 297.788 48.2509 298.153 47.7851C298.535 47.3032 298.82 46.7337 299.009 46.0768C299.214 45.4197 299.314 44.6832 299.31 43.8672C299.306 43.0512 299.198 42.3158 298.987 41.6608C298.791 40.9898 298.5 40.4232 298.114 39.9612C297.744 39.483 297.278 39.1174 296.717 38.8642C296.171 38.6109 295.555 38.486 294.867 38.4895C294.163 38.493 293.539 38.6321 292.997 38.9069C292.454 39.1656 291.992 39.5359 291.61 40.0178C291.245 40.4837 290.959 41.0531 290.755 41.7262C290.566 42.3831 290.474 43.1116 290.478 43.9116ZM303.174 43.8478C303.181 45.2718 302.971 46.5289 302.545 47.619C302.134 48.6931 301.563 49.6 300.83 50.3397C300.098 51.0634 299.221 51.6118 298.198 51.9849C297.192 52.358 296.105 52.5474 294.937 52.5533C293.801 52.559 292.728 52.3804 291.719 52.0174C290.709 51.6545 289.826 51.1149 289.07 50.3987C288.315 49.6665 287.718 48.7655 287.281 47.6957C286.843 46.6099 286.621 45.355 286.614 43.931C286.607 42.507 286.824 41.2579 287.267 40.1836C287.71 39.0934 288.305 38.1784 289.053 37.4386C289.818 36.6988 290.695 36.1424 291.685 35.7694C292.691 35.3963 293.746 35.207 294.85 35.2015C295.986 35.1958 297.059 35.3744 298.069 35.7374C299.079 36.1003 299.961 36.6479 300.717 37.3801C301.473 38.1123 302.069 39.0213 302.507 40.1071C302.944 41.1769 303.167 42.4238 303.174 43.8478ZM311.124 35.3118C313.62 35.2993 315.534 35.7377 316.867 36.627C318.199 37.5003 318.87 38.873 318.879 40.7449C318.885 41.9129 318.618 42.8663 318.078 43.605C317.553 44.3276 316.788 44.8995 315.782 45.3205C316.12 45.7348 316.475 46.2131 316.845 46.7552C317.216 47.2814 317.579 47.8395 317.934 48.4298C318.305 49.0039 318.66 49.6101 318.999 50.2484C319.338 50.8708 319.653 51.4852 319.944 52.0917L315.744 52.1128C315.438 51.5703 315.123 51.0199 314.8 50.4615C314.493 49.9031 314.17 49.3607 313.832 48.8344C313.509 48.308 313.187 47.8136 312.864 47.3512C312.542 46.8728 312.22 46.4424 311.898 46.0601L310.05 46.0693L310.08 52.1413L306.336 52.1601L306.254 35.7683C307.069 35.6042 307.909 35.4879 308.772 35.4196C309.652 35.3512 310.436 35.3153 311.124 35.3118ZM311.356 38.5027C311.084 38.504 310.836 38.5133 310.612 38.5304C310.404 38.5475 310.204 38.5645 310.012 38.5814L310.035 43.0934L311.091 43.0881C312.499 43.081 313.506 42.8999 314.112 42.5449C314.718 42.1898 315.019 41.5883 315.015 40.7403C315.011 39.9243 314.696 39.3499 314.07 39.0171C313.461 38.6681 312.556 38.4967 311.356 38.5027ZM326.676 35.4257C326.967 35.9523 327.298 36.6066 327.67 37.3888C328.058 38.1548 328.454 38.9928 328.859 39.9028C329.279 40.7967 329.692 41.7147 330.097 42.6566C330.502 43.5986 330.882 44.4847 331.238 45.3149C331.586 44.4812 331.958 43.5913 332.353 42.6453C332.748 41.6993 333.143 40.7773 333.539 39.8793C333.95 38.9652 334.338 38.1233 334.702 37.3534C335.082 36.5675 335.415 35.9098 335.7 35.3804L339.108 35.3633C339.274 36.4665 339.424 37.7057 339.559 39.0811C339.71 40.4403 339.837 41.8637 339.94 43.3512C340.06 44.8226 340.163 46.3021 340.251 47.7897C340.354 49.2772 340.441 50.6768 340.512 51.9885L336.864 52.0068C336.808 50.391 336.735 48.6314 336.645 46.7278C336.556 44.8242 336.426 42.9049 336.256 40.9697C335.972 41.6431 335.656 42.3887 335.308 43.2065C334.96 44.0242 334.612 44.842 334.264 45.6597C333.932 46.4774 333.608 47.2631 333.292 48.0167C332.975 48.7543 332.707 49.3876 332.485 49.9167L329.869 49.9299C329.643 49.403 329.367 48.7724 329.044 48.038C328.72 47.2876 328.38 46.5053 328.024 45.6911C327.684 44.8768 327.336 44.0625 326.98 43.2483C326.624 42.4341 326.3 41.6917 326.009 41.0211C325.858 42.9579 325.748 44.8785 325.677 46.7829C325.607 48.6873 325.552 50.4476 325.512 52.0638L321.864 52.0821C321.921 50.7698 321.986 49.3694 322.059 47.8811C322.147 46.3926 322.236 44.9121 322.325 43.4397C322.429 41.9511 322.542 40.5265 322.663 39.1659C322.8 37.7892 322.946 36.5485 323.1 35.4437L326.676 35.4257ZM348.404 49.0928C348.932 49.0901 349.364 49.048 349.7 48.9663C350.051 48.8685 350.331 48.7471 350.538 48.6021C350.745 48.441 350.888 48.2563 350.967 48.0479C351.046 47.8395 351.085 47.6073 351.084 47.3513C351.081 46.8073 350.823 46.3606 350.309 46.0112C349.795 45.6458 348.913 45.2582 347.663 44.8485C347.118 44.6592 346.573 44.4459 346.028 44.2087C345.483 43.9554 344.993 43.6459 344.559 43.28C344.125 42.8982 343.771 42.444 343.496 41.9173C343.222 41.3747 343.082 40.7194 343.078 39.9514C343.075 39.1834 343.215 38.4947 343.5 37.8853C343.785 37.2598 344.19 36.7298 344.716 36.2952C345.242 35.8605 345.88 35.5293 346.631 35.3015C347.382 35.0578 348.229 34.9335 349.173 34.9288C350.293 34.9231 351.262 35.0383 352.079 35.2742C352.896 35.5101 353.57 35.7707 354.099 36.056L353.034 39.0134C352.569 38.7758 352.048 38.5704 351.471 38.3973C350.91 38.2081 350.229 38.1155 349.429 38.1195C348.533 38.124 347.886 38.2553 347.487 38.5133C347.104 38.7552 346.914 39.1321 346.917 39.6441C346.918 39.9481 346.992 40.2038 347.137 40.411C347.282 40.6183 347.483 40.8093 347.74 40.984C348.012 41.1427 348.317 41.2931 348.654 41.4354C349.007 41.5617 349.391 41.6957 349.808 41.8377C350.674 42.1533 351.427 42.4695 352.069 42.7863C352.71 43.0871 353.24 43.4444 353.658 43.8583C354.092 44.2722 354.415 44.7586 354.626 45.3175C354.836 45.8765 354.944 46.5559 354.948 47.3559C354.956 48.9079 354.418 50.1186 353.334 50.9881C352.25 51.8415 350.612 52.2737 348.42 52.2848C347.684 52.2884 347.02 52.2438 346.428 52.1508C345.835 52.0737 345.307 51.9724 344.842 51.8467C344.394 51.721 344.001 51.5869 343.664 51.4446C343.343 51.3022 343.071 51.1676 342.846 51.0407L343.887 48.0595C344.385 48.329 344.994 48.5739 345.715 48.7943C346.452 48.9986 347.348 49.0981 348.404 49.0928Z" fill="white"/>
</g>
<defs>
<filter id="filter0_d_1_31" x="0.640137" y="0.756271" width="399.387" height="95.922" filterUnits="userSpaceOnUse" color-interpolation-filters="sRGB">
<feFlood flood-opacity="0" result="BackgroundImageFix"/>
<feColorMatrix in="SourceAlpha" type="matrix" values="0 0 0 0 0 0 0 0 0 0 0 0 0 0 0 0 0 0 127 0" result="hardAlpha"/>
<feOffset dx="5" dy="5"/>
<feGaussianBlur stdDeviation="4"/>
<feComposite in2="hardAlpha" operator="out"/>
<feColorMatrix type="matrix" values="0 0 0 0 0.36175 0 0 0 0 0.1375 0 0 0 0 1 0 0 0 1 0"/>
<feBlend mode="normal" in2="BackgroundImageFix" result="effect1_dropShadow_1_31"/>
<feBlend mode="normal" in="SourceGraphic" in2="effect1_dropShadow_1_31" result="shape"/>
</filter>
</defs>
</svg>
